<?xml version="1.0" encoding="utf-8"?>
<!-- Generator: Adobe Illustrator 24.0.2, SVG Export Plug-In . SVG Version: 6.00 Build 0)  -->
<svg version="1.1" xmlns="http://www.w3.org/2000/svg" xmlns:xlink="http://www.w3.org/1999/xlink" x="0px" y="0px"
	 viewBox="0 0 1900 300" style="enable-background:new 0 0 1900 300;" xml:space="preserve">
<style type="text/css">
	.st0{fill:#110241;}
	.st1{fill:#F1F1F1;}
</style>
<g id="Layer_2">
	<rect class="st0" width="1900" height="300"/>
</g>
<g id="Layer_1">
	<path class="st1" d="M1321.25-3.39l0.04,41.36c0,0-29.07,36.03-65.11,0.06l-0.04-41.36L1321.25-3.39z"/>
	<path class="st1" d="M1259.14-3.33l0.04,41.36c0,0-29.07,36.03-65.11,0.06l-0.04-41.36L1259.14-3.33z"/>
	<path class="st1" d="M1197.67-3.27l0.04,41.36c0,0-29.07,36.03-65.11,0.06l-0.04-41.36L1197.67-3.27z"/>
	<path class="st1" d="M1135.56-3.2l0.04,41.36c0,0-29.07,36.03-65.11,0.06l-0.04-41.36L1135.56-3.2z"/>
	<path class="st1" d="M1073.08-3.14l0.04,41.36c0,0-29.07,36.03-65.11,0.06l-0.04-41.36L1073.08-3.14z"/>
	<path class="st1" d="M1010.97-3.08l0.04,41.36c0,0-29.07,36.03-65.11,0.06l-0.04-41.36L1010.97-3.08z"/>
	<path class="st1" d="M1690.75-2.26l0.04,41.36c0,0-29.07,36.03-65.11,0.06l-0.04-41.36L1690.75-2.26z"/>
	<path class="st1" d="M1628.65-2.2l0.04,41.36c0,0-29.07,36.03-65.11,0.06l-0.04-41.36L1628.65-2.2z"/>
	<path class="st1" d="M1567.18-2.14l0.04,41.36c0,0-29.07,36.03-65.11,0.06l-0.04-41.36L1567.18-2.14z"/>
	<path class="st1" d="M1505.07-2.07l0.04,41.36c0,0-29.07,36.03-65.11,0.06l-0.04-41.36L1505.07-2.07z"/>
	<path class="st1" d="M1442.58-2.01l0.04,41.36c0,0-29.07,36.03-65.11,0.06l-0.04-41.36L1442.58-2.01z"/>
	<path class="st1" d="M1380.48-1.95l0.04,41.36c0,0-29.07,36.03-65.11,0.06l-0.04-41.36L1380.48-1.95z"/>
	<path class="st1" d="M2060.75-2.1l0.04,41.36c0,0-29.07,36.03-65.11,0.06l-0.04-41.36L2060.75-2.1z"/>
	<path class="st1" d="M1998.65-2.04l0.04,41.36c0,0-29.07,36.03-65.11,0.06l-0.04-41.36L1998.65-2.04z"/>
	<path class="st1" d="M1937.18-1.98l0.04,41.36c0,0-29.07,36.03-65.11,0.06l-0.04-41.36L1937.18-1.98z"/>
	<path class="st1" d="M1875.07-1.92l0.04,41.36c0,0-29.07,36.03-65.11,0.06l-0.04-41.36L1875.07-1.92z"/>
	<path class="st1" d="M1812.58-1.86l0.04,41.36c0,0-29.07,36.03-65.11,0.06l-0.04-41.36L1812.58-1.86z"/>
	<path class="st1" d="M1750.48-1.8l0.04,41.36c0,0-29.07,36.03-65.11,0.06l-0.04-41.36L1750.48-1.8z"/>
	<path class="st1" d="M954.1-3.02l0.04,41.36c0,0-29.07,36.03-65.11,0.06l-0.04-41.36L954.1-3.02z"/>
	<path class="st1" d="M891.99-2.96l0.04,41.36c0,0-29.07,36.03-65.11,0.06L826.88-2.9L891.99-2.96z"/>
	<path class="st1" d="M829.5-2.9l0.04,41.36c0,0-29.07,36.03-65.11,0.06l-0.04-41.36L829.5-2.9z"/>
	<path class="st1" d="M767.39-2.84l0.04,41.36c0,0-29.07,36.03-65.11,0.06l-0.04-41.36L767.39-2.84z"/>
	<path class="st1" d="M705.93-2.78l0.04,41.36c0,0-29.07,36.03-65.11,0.06l-0.04-41.36L705.93-2.78z"/>
	<path class="st1" d="M643.82-2.72l0.04,41.36c0,0-29.07,36.03-65.11,0.06l-0.04-41.36L643.82-2.72z"/>
	<path class="st1" d="M581.33-2.66l0.04,41.36c0,0-29.07,36.03-65.11,0.06l-0.04-41.36L581.33-2.66z"/>
	<path class="st1" d="M519.22-2.59l0.04,41.36c0,0-29.07,36.03-65.11,0.06l-0.04-41.36L519.22-2.59z"/>
	<path class="st1" d="M459.29-2.53l0.04,41.36c0,0-29.07,36.03-65.11,0.06l-0.04-41.36L459.29-2.53z"/>
	<path class="st1" d="M397.18-2.47l0.04,41.36c0,0-29.07,36.03-65.11,0.06l-0.04-41.36L397.18-2.47z"/>
	<path class="st1" d="M334.69-2.41l0.04,41.36c0,0-29.07,36.03-65.11,0.06l-0.04-41.36L334.69-2.41z"/>
	<path class="st1" d="M272.59-2.35l0.04,41.36c0,0-29.07,36.03-65.11,0.06l-0.04-41.36L272.59-2.35z"/>
	<path class="st1" d="M211.12-2.29l0.04,41.36c0,0-29.07,36.03-65.11,0.06l-0.04-41.36L211.12-2.29z"/>
	<path class="st1" d="M149.01-2.23l0.04,41.36c0,0-29.07,36.03-65.11,0.06L83.91-2.16L149.01-2.23z"/>
	<path class="st1" d="M86.52-2.17l0.04,41.36c0,0-29.07,36.03-65.11,0.06L21.42-2.1L86.52-2.17z"/>
	<path class="st1" d="M24.42-2.1l0.04,41.36c0,0-29.07,36.03-65.11,0.06l-0.04-41.36L24.42-2.1z"/>
</g>
</svg>
